<mxfile host="app.diagrams.net" modified="2020-03-22T10:18:49.124Z" agent="Mozilla/5.0 (Windows NT 10.0; Win64; x64; rv:74.0) Gecko/20100101 Firefox/74.0" etag="E9qWdYniUHrArR-o3q9k" version="12.8.8" type="github">
  <diagram name="Page-1" id="2c0d36ab-eaac-3732-788b-9136903baeff">
    <mxGraphModel dx="2034" dy="1131" grid="1" gridSize="10" guides="1" tooltips="1" connect="1" arrows="1" fold="1" page="1" pageScale="1.5" pageWidth="1169" pageHeight="827" background="#ffffff" math="0" shadow="0">
      <root>
        <mxCell id="0" />
        <mxCell id="1" parent="0" />
        <mxCell id="122" value="" style="fillColor=#10739E;strokeColor=none;opacity=30;" parent="1" vertex="1">
          <mxGeometry x="97" y="325.5" width="1470" height="99.99999999999994" as="geometry" />
        </mxCell>
        <mxCell id="121" value="" style="fillColor=#F2931E;strokeColor=none;opacity=30;" parent="1" vertex="1">
          <mxGeometry x="1557" y="705.5" width="150" height="270" as="geometry" />
        </mxCell>
        <mxCell id="116" value="" style="fillColor=#10739E;strokeColor=none;opacity=30;" parent="1" vertex="1">
          <mxGeometry x="1557" y="985.5000000000002" width="150" height="80" as="geometry" />
        </mxCell>
        <mxCell id="115" value="" style="fillColor=#10739E;strokeColor=none;opacity=30;" parent="1" vertex="1">
          <mxGeometry x="1207" y="715.5" width="330" height="80" as="geometry" />
        </mxCell>
        <mxCell id="110" value="" style="fillColor=#12AAB5;strokeColor=none;opacity=30;" parent="1" vertex="1">
          <mxGeometry x="1207" y="445.5000000000001" width="500" height="80" as="geometry" />
        </mxCell>
        <mxCell id="4" value="Direct drivers" style="rounded=1;fillColor=#23445D;gradientColor=none;strokeColor=none;fontColor=#FFFFFF;fontStyle=1;fontFamily=Tahoma;fontSize=14" parent="1" vertex="1">
          <mxGeometry x="1361.9999999999998" y="335.5" width="190" height="80" as="geometry" />
        </mxCell>
        <mxCell id="10" value="Good quality of life" style="rounded=1;fillColor=#23445D;gradientColor=none;strokeColor=none;fontColor=#FFFFFF;fontStyle=1;fontFamily=Tahoma;fontSize=14" parent="1" vertex="1">
          <mxGeometry x="947" y="335.5" width="190" height="80" as="geometry" />
        </mxCell>
        <mxCell id="12" value="Nature" style="rounded=1;fillColor=#23445D;gradientColor=none;strokeColor=none;fontColor=#FFFFFF;fontStyle=1;fontFamily=Tahoma;fontSize=14" parent="1" vertex="1">
          <mxGeometry x="561.9999999999999" y="335.5" width="190" height="80" as="geometry" />
        </mxCell>
        <mxCell id="13" value="Ecosystem services" style="rounded=1;fillColor=#23445D;gradientColor=none;strokeColor=none;fontColor=#FFFFFF;fontStyle=1;fontFamily=Tahoma;fontSize=14" parent="1" vertex="1">
          <mxGeometry x="107" y="335.5" width="190" height="80" as="geometry" />
        </mxCell>
        <mxCell id="44" value="SI" style="rounded=1;fillColor=#23445D;gradientColor=none;strokeColor=none;fontColor=#FFFFFF;fontStyle=1;fontFamily=Tahoma;fontSize=14" parent="1" vertex="1">
          <mxGeometry x="1217" y="455.50000000000006" width="130" height="60" as="geometry" />
        </mxCell>
        <mxCell id="45" value="Programming" style="rounded=1;fillColor=#23445D;gradientColor=none;strokeColor=none;fontColor=#FFFFFF;fontStyle=1;fontFamily=Tahoma;fontSize=14" parent="1" vertex="1">
          <mxGeometry x="1217" y="545.5" width="130" height="60" as="geometry" />
        </mxCell>
        <mxCell id="46" value="Client / Server" style="rounded=1;fillColor=#23445D;gradientColor=none;strokeColor=none;fontColor=#FFFFFF;fontStyle=1;fontFamily=Tahoma;fontSize=14" parent="1" vertex="1">
          <mxGeometry x="1217" y="635.5" width="130" height="60" as="geometry" />
        </mxCell>
        <mxCell id="47" value="Data Collection" style="rounded=1;fillColor=#23445D;gradientColor=none;strokeColor=none;fontColor=#FFFFFF;fontStyle=1;fontFamily=Tahoma;fontSize=14" parent="1" vertex="1">
          <mxGeometry x="1217" y="725.5000000000001" width="130" height="60" as="geometry" />
        </mxCell>
        <mxCell id="48" value="SSI" style="rounded=1;fillColor=#23445D;gradientColor=none;strokeColor=none;fontColor=#FFFFFF;fontStyle=1;fontFamily=Tahoma;fontSize=14" parent="1" vertex="1">
          <mxGeometry x="1392" y="455.50000000000006" width="130" height="60" as="geometry" />
        </mxCell>
        <mxCell id="49" value="Programming" style="rounded=1;fillColor=#23445D;gradientColor=none;strokeColor=none;fontColor=#FFFFFF;fontStyle=1;fontFamily=Tahoma;fontSize=14" parent="1" vertex="1">
          <mxGeometry x="1392" y="545.5" width="130" height="60" as="geometry" />
        </mxCell>
        <mxCell id="50" value="Client / Server" style="rounded=1;fillColor=#23445D;gradientColor=none;strokeColor=none;fontColor=#FFFFFF;fontStyle=1;fontFamily=Tahoma;fontSize=14" parent="1" vertex="1">
          <mxGeometry x="1392" y="635.5" width="130" height="60" as="geometry" />
        </mxCell>
        <mxCell id="51" value="Data Collection" style="rounded=1;fillColor=#23445D;gradientColor=none;strokeColor=none;fontColor=#FFFFFF;fontStyle=1;fontFamily=Tahoma;fontSize=14" parent="1" vertex="1">
          <mxGeometry x="1392" y="725.5000000000001" width="130" height="60" as="geometry" />
        </mxCell>
        <mxCell id="52" value="XMI" style="rounded=1;fillColor=#23445D;gradientColor=none;strokeColor=none;fontColor=#FFFFFF;fontStyle=1;fontFamily=Tahoma;fontSize=14" parent="1" vertex="1">
          <mxGeometry x="1567" y="455.50000000000006" width="130" height="60" as="geometry" />
        </mxCell>
        <mxCell id="53" value="Programming" style="rounded=1;fillColor=#23445D;gradientColor=none;strokeColor=none;fontColor=#FFFFFF;fontStyle=1;fontFamily=Tahoma;fontSize=14" parent="1" vertex="1">
          <mxGeometry x="1567" y="545.5" width="130" height="60" as="geometry" />
        </mxCell>
        <mxCell id="54" value="HTTP" style="rounded=1;fillColor=#23445D;gradientColor=none;strokeColor=none;fontColor=#FFFFFF;fontStyle=1;fontFamily=Tahoma;fontSize=14" parent="1" vertex="1">
          <mxGeometry x="1567" y="635.5" width="130" height="60" as="geometry" />
        </mxCell>
        <mxCell id="55" value="HTS" style="rounded=1;fillColor=#23445D;gradientColor=none;strokeColor=none;fontColor=#FFFFFF;fontStyle=1;fontFamily=Tahoma;fontSize=14" parent="1" vertex="1">
          <mxGeometry x="1567" y="725.5000000000001" width="130" height="60" as="geometry" />
        </mxCell>
        <mxCell id="56" value="CVS" style="rounded=1;fillColor=#23445D;gradientColor=none;strokeColor=none;fontColor=#FFFFFF;fontStyle=1;fontFamily=Tahoma;fontSize=14" parent="1" vertex="1">
          <mxGeometry x="1567" y="815.5000000000001" width="130" height="60" as="geometry" />
        </mxCell>
        <mxCell id="57" value="Client / Server" style="rounded=1;fillColor=#23445D;gradientColor=none;strokeColor=none;fontColor=#FFFFFF;fontStyle=1;fontFamily=Tahoma;fontSize=14" parent="1" vertex="1">
          <mxGeometry x="1567" y="905.5000000000001" width="130" height="60" as="geometry" />
        </mxCell>
        <mxCell id="58" value="Data Collection" style="rounded=1;fillColor=#23445D;gradientColor=none;strokeColor=none;fontColor=#FFFFFF;fontStyle=1;fontFamily=Tahoma;fontSize=14" parent="1" vertex="1">
          <mxGeometry x="1567" y="995.5000000000001" width="130" height="60" as="geometry" />
        </mxCell>
        <mxCell id="87" value="" style="edgeStyle=elbowEdgeStyle;elbow=horizontal;strokeWidth=2;rounded=0" parent="1" source="48" target="49" edge="1">
          <mxGeometry x="-23" y="135.5" width="100" height="100" as="geometry">
            <mxPoint x="-23" y="235.5" as="sourcePoint" />
            <mxPoint x="77" y="135.5" as="targetPoint" />
            <Array as="points">
              <mxPoint x="1367" y="535.5" />
            </Array>
          </mxGeometry>
        </mxCell>
        <mxCell id="88" value="" style="edgeStyle=elbowEdgeStyle;elbow=horizontal;strokeWidth=2;rounded=0" parent="1" source="48" target="50" edge="1">
          <mxGeometry x="-23" y="135.5" width="100" height="100" as="geometry">
            <mxPoint x="-23" y="235.5" as="sourcePoint" />
            <mxPoint x="77" y="135.5" as="targetPoint" />
            <Array as="points">
              <mxPoint x="1367" y="595.5" />
            </Array>
          </mxGeometry>
        </mxCell>
        <mxCell id="89" value="" style="edgeStyle=elbowEdgeStyle;elbow=horizontal;strokeWidth=2;rounded=0" parent="1" source="48" target="51" edge="1">
          <mxGeometry x="-23" y="135.5" width="100" height="100" as="geometry">
            <mxPoint x="-23" y="235.5" as="sourcePoint" />
            <mxPoint x="77" y="135.5" as="targetPoint" />
            <Array as="points">
              <mxPoint x="1367" y="625.5" />
            </Array>
          </mxGeometry>
        </mxCell>
        <mxCell id="90" value="" style="edgeStyle=elbowEdgeStyle;elbow=horizontal;strokeWidth=2;rounded=0" parent="1" source="52" target="53" edge="1">
          <mxGeometry x="-23" y="135.5" width="100" height="100" as="geometry">
            <mxPoint x="-23" y="235.5" as="sourcePoint" />
            <mxPoint x="77" y="135.5" as="targetPoint" />
            <Array as="points">
              <mxPoint x="1547" y="535.5" />
            </Array>
          </mxGeometry>
        </mxCell>
        <mxCell id="91" value="" style="edgeStyle=elbowEdgeStyle;elbow=horizontal;strokeWidth=2;rounded=0" parent="1" source="52" target="54" edge="1">
          <mxGeometry x="-23" y="135.5" width="100" height="100" as="geometry">
            <mxPoint x="-23" y="235.5" as="sourcePoint" />
            <mxPoint x="77" y="135.5" as="targetPoint" />
            <Array as="points">
              <mxPoint x="1547" y="575.5" />
            </Array>
          </mxGeometry>
        </mxCell>
        <mxCell id="92" value="" style="edgeStyle=elbowEdgeStyle;elbow=horizontal;strokeWidth=2;rounded=0" parent="1" source="52" target="55" edge="1">
          <mxGeometry x="-23" y="135.5" width="100" height="100" as="geometry">
            <mxPoint x="-23" y="235.5" as="sourcePoint" />
            <mxPoint x="77" y="135.5" as="targetPoint" />
            <Array as="points">
              <mxPoint x="1547" y="625.5" />
            </Array>
          </mxGeometry>
        </mxCell>
        <mxCell id="93" value="" style="edgeStyle=elbowEdgeStyle;elbow=horizontal;strokeWidth=2;rounded=0" parent="1" source="52" target="56" edge="1">
          <mxGeometry x="-23" y="135.5" width="100" height="100" as="geometry">
            <mxPoint x="-23" y="235.5" as="sourcePoint" />
            <mxPoint x="77" y="135.5" as="targetPoint" />
            <Array as="points">
              <mxPoint x="1547" y="675.5" />
            </Array>
          </mxGeometry>
        </mxCell>
        <mxCell id="94" value="" style="edgeStyle=elbowEdgeStyle;elbow=horizontal;strokeWidth=2;rounded=0" parent="1" source="52" target="57" edge="1">
          <mxGeometry x="-23" y="135.5" width="100" height="100" as="geometry">
            <mxPoint x="-23" y="235.5" as="sourcePoint" />
            <mxPoint x="77" y="135.5" as="targetPoint" />
            <Array as="points">
              <mxPoint x="1547" y="725.5" />
            </Array>
          </mxGeometry>
        </mxCell>
        <mxCell id="95" value="" style="edgeStyle=elbowEdgeStyle;elbow=horizontal;strokeWidth=2;rounded=0" parent="1" source="52" target="58" edge="1">
          <mxGeometry x="-23" y="135.5" width="100" height="100" as="geometry">
            <mxPoint x="-23" y="235.5" as="sourcePoint" />
            <mxPoint x="77" y="135.5" as="targetPoint" />
            <Array as="points">
              <mxPoint x="1547" y="765.5" />
            </Array>
          </mxGeometry>
        </mxCell>
        <mxCell id="103" value="" style="edgeStyle=elbowEdgeStyle;elbow=vertical;strokeWidth=2;rounded=0" parent="1" source="10" edge="1">
          <mxGeometry x="-23" y="135.5" width="100" height="100" as="geometry">
            <mxPoint x="-23" y="235.5" as="sourcePoint" />
            <mxPoint x="1042" y="455.5" as="targetPoint" />
          </mxGeometry>
        </mxCell>
        <mxCell id="104" value="" style="edgeStyle=elbowEdgeStyle;elbow=vertical;strokeWidth=2;rounded=0" parent="1" source="4" target="48" edge="1">
          <mxGeometry x="-23" y="135.5" width="100" height="100" as="geometry">
            <mxPoint x="-23" y="235.5" as="sourcePoint" />
            <mxPoint x="77" y="135.5" as="targetPoint" />
          </mxGeometry>
        </mxCell>
        <mxCell id="105" value="" style="edgeStyle=elbowEdgeStyle;elbow=vertical;strokeWidth=2;rounded=0" parent="1" source="4" target="44" edge="1">
          <mxGeometry x="-23" y="135.5" width="100" height="100" as="geometry">
            <mxPoint x="-23" y="235.5" as="sourcePoint" />
            <mxPoint x="77" y="135.5" as="targetPoint" />
          </mxGeometry>
        </mxCell>
        <mxCell id="106" value="" style="edgeStyle=elbowEdgeStyle;elbow=vertical;strokeWidth=2;rounded=0" parent="1" source="4" target="52" edge="1">
          <mxGeometry x="-23" y="135.5" width="100" height="100" as="geometry">
            <mxPoint x="-23" y="235.5" as="sourcePoint" />
            <mxPoint x="77" y="135.5" as="targetPoint" />
          </mxGeometry>
        </mxCell>
        <mxCell id="107" value="" style="edgeStyle=elbowEdgeStyle;elbow=vertical;rounded=0;strokeWidth=2" parent="1" target="15" edge="1">
          <mxGeometry x="-23" y="135.5" width="100" height="100" as="geometry">
            <mxPoint x="122" y="515.5" as="sourcePoint" />
            <mxPoint x="77" y="135.5" as="targetPoint" />
          </mxGeometry>
        </mxCell>
        <mxCell id="o9-z1RI_EK6PcWkdSyOs-126" value="Policies &amp; Strategical actions" style="rounded=1;fillColor=#23445D;gradientColor=none;strokeColor=none;fontColor=#FFFFFF;fontStyle=1;fontFamily=Tahoma;fontSize=14;whiteSpace=wrap;" vertex="1" parent="1">
          <mxGeometry x="1201.9999999999998" y="120" width="190" height="80" as="geometry" />
        </mxCell>
        <mxCell id="o9-z1RI_EK6PcWkdSyOs-127" value="Terminology" style="rounded=1;fillColor=#23445D;gradientColor=none;strokeColor=none;fontColor=#FFFFFF;fontStyle=1;fontFamily=Tahoma;fontSize=14" vertex="1" parent="1">
          <mxGeometry x="30" y="475.5" width="130" height="60" as="geometry" />
        </mxCell>
        <mxCell id="o9-z1RI_EK6PcWkdSyOs-143" value="Individual services" style="rounded=1;fillColor=#23445D;gradientColor=none;strokeColor=none;fontColor=#FFFFFF;fontStyle=1;fontFamily=Tahoma;fontSize=14" vertex="1" parent="1">
          <mxGeometry x="210" y="475.5" width="130" height="60" as="geometry" />
        </mxCell>
        <mxCell id="o9-z1RI_EK6PcWkdSyOs-145" value="Ecosystem services" style="rounded=1;fillColor=#23445D;gradientColor=none;strokeColor=none;fontColor=#FFFFFF;fontStyle=1;fontFamily=Tahoma;fontSize=14" vertex="1" parent="1">
          <mxGeometry x="20" y="580" width="130" height="60" as="geometry" />
        </mxCell>
        <mxCell id="o9-z1RI_EK6PcWkdSyOs-149" value="Contribution" style="rounded=1;fillColor=#23445D;gradientColor=none;strokeColor=none;fontColor=#FFFFFF;fontStyle=1;fontFamily=Tahoma;fontSize=14" vertex="1" parent="1">
          <mxGeometry x="30" y="665.5" width="130" height="60" as="geometry" />
        </mxCell>
        <mxCell id="o9-z1RI_EK6PcWkdSyOs-150" value="Benefits" style="rounded=1;fillColor=#23445D;gradientColor=none;strokeColor=none;fontColor=#FFFFFF;fontStyle=1;fontFamily=Tahoma;fontSize=14" vertex="1" parent="1">
          <mxGeometry x="20" y="750" width="130" height="60" as="geometry" />
        </mxCell>
        <mxCell id="o9-z1RI_EK6PcWkdSyOs-151" value="Value" style="rounded=1;fillColor=#23445D;gradientColor=none;strokeColor=none;fontColor=#FFFFFF;fontStyle=1;fontFamily=Tahoma;fontSize=14" vertex="1" parent="1">
          <mxGeometry x="30" y="830" width="130" height="60" as="geometry" />
        </mxCell>
        <mxCell id="o9-z1RI_EK6PcWkdSyOs-152" value="Air purification" style="rounded=1;fillColor=#23445D;gradientColor=none;strokeColor=none;fontColor=#FFFFFF;fontStyle=1;fontFamily=Tahoma;fontSize=14" vertex="1" parent="1">
          <mxGeometry x="190" y="575.5" width="130" height="60" as="geometry" />
        </mxCell>
        <mxCell id="o9-z1RI_EK6PcWkdSyOs-153" value="Water purification" style="rounded=1;fillColor=#23445D;gradientColor=none;strokeColor=none;fontColor=#FFFFFF;fontStyle=1;fontFamily=Tahoma;fontSize=14" vertex="1" parent="1">
          <mxGeometry x="180" y="640" width="130" height="60" as="geometry" />
        </mxCell>
        <mxCell id="o9-z1RI_EK6PcWkdSyOs-154" value="Carbon storage / sequestration " style="rounded=1;fillColor=#23445D;gradientColor=none;strokeColor=none;fontColor=#FFFFFF;fontStyle=1;fontFamily=Tahoma;fontSize=14" vertex="1" parent="1">
          <mxGeometry x="190" y="705.5" width="130" height="60" as="geometry" />
        </mxCell>
        <mxCell id="o9-z1RI_EK6PcWkdSyOs-155" value="Cooling" style="rounded=1;fillColor=#23445D;gradientColor=none;strokeColor=none;fontColor=#FFFFFF;fontStyle=1;fontFamily=Tahoma;fontSize=14" vertex="1" parent="1">
          <mxGeometry x="200" y="770" width="130" height="60" as="geometry" />
        </mxCell>
        <mxCell id="o9-z1RI_EK6PcWkdSyOs-158" value="Flood protection / mitigation" style="rounded=1;fillColor=#23445D;gradientColor=none;strokeColor=none;fontColor=#FFFFFF;fontStyle=1;fontFamily=Tahoma;fontSize=14" vertex="1" parent="1">
          <mxGeometry x="190" y="840" width="130" height="60" as="geometry" />
        </mxCell>
        <mxCell id="o9-z1RI_EK6PcWkdSyOs-159" value="Noise attenuation" style="rounded=1;fillColor=#23445D;gradientColor=none;strokeColor=none;fontColor=#FFFFFF;fontStyle=1;fontFamily=Tahoma;fontSize=14" vertex="1" parent="1">
          <mxGeometry x="190" y="920" width="130" height="60" as="geometry" />
        </mxCell>
        <mxCell id="o9-z1RI_EK6PcWkdSyOs-160" value="Pollination" style="rounded=1;fillColor=#23445D;gradientColor=none;strokeColor=none;fontColor=#FFFFFF;fontStyle=1;fontFamily=Tahoma;fontSize=14" vertex="1" parent="1">
          <mxGeometry x="190" y="995.5" width="130" height="60" as="geometry" />
        </mxCell>
        <mxCell id="o9-z1RI_EK6PcWkdSyOs-161" value="Habitat provision" style="rounded=1;fillColor=#23445D;gradientColor=none;strokeColor=none;fontColor=#FFFFFF;fontStyle=1;fontFamily=Tahoma;fontSize=14" vertex="1" parent="1">
          <mxGeometry x="190" y="1070" width="130" height="60" as="geometry" />
        </mxCell>
        <mxCell id="o9-z1RI_EK6PcWkdSyOs-162" value="Recreation" style="rounded=1;fillColor=#23445D;gradientColor=none;strokeColor=none;fontColor=#FFFFFF;fontStyle=1;fontFamily=Tahoma;fontSize=14" vertex="1" parent="1">
          <mxGeometry x="190" y="1160" width="130" height="60" as="geometry" />
        </mxCell>
        <mxCell id="o9-z1RI_EK6PcWkdSyOs-163" value="Experiencing nature" style="rounded=1;fillColor=#23445D;gradientColor=none;strokeColor=none;fontColor=#FFFFFF;fontStyle=1;fontFamily=Tahoma;fontSize=14" vertex="1" parent="1">
          <mxGeometry x="190" y="1240" width="130" height="60" as="geometry" />
        </mxCell>
        <mxCell id="o9-z1RI_EK6PcWkdSyOs-165" value="Socialising" style="rounded=1;fillColor=#23445D;gradientColor=none;strokeColor=none;fontColor=#FFFFFF;fontStyle=1;fontFamily=Tahoma;fontSize=14" vertex="1" parent="1">
          <mxGeometry x="180" y="1330" width="130" height="60" as="geometry" />
        </mxCell>
        <mxCell id="o9-z1RI_EK6PcWkdSyOs-166" value="Supporting identity" style="rounded=1;fillColor=#23445D;gradientColor=none;strokeColor=none;fontColor=#FFFFFF;fontStyle=1;fontFamily=Tahoma;fontSize=14" vertex="1" parent="1">
          <mxGeometry x="180" y="1400" width="130" height="60" as="geometry" />
        </mxCell>
        <mxCell id="o9-z1RI_EK6PcWkdSyOs-167" value="Physical activity" style="rounded=1;fillColor=#23445D;gradientColor=none;strokeColor=none;fontColor=#FFFFFF;fontStyle=1;fontFamily=Tahoma;fontSize=14" vertex="1" parent="1">
          <mxGeometry x="167" y="1480" width="130" height="60" as="geometry" />
        </mxCell>
        <mxCell id="o9-z1RI_EK6PcWkdSyOs-168" value="Food" style="rounded=1;fillColor=#23445D;gradientColor=none;strokeColor=none;fontColor=#FFFFFF;fontStyle=1;fontFamily=Tahoma;fontSize=14" vertex="1" parent="1">
          <mxGeometry x="167" y="1550" width="130" height="60" as="geometry" />
        </mxCell>
        <mxCell id="o9-z1RI_EK6PcWkdSyOs-169" value="Disservices" style="rounded=1;fillColor=#23445D;gradientColor=none;strokeColor=none;fontColor=#FFFFFF;fontStyle=1;fontFamily=Tahoma;fontSize=14" vertex="1" parent="1">
          <mxGeometry x="167" y="1620" width="130" height="60" as="geometry" />
        </mxCell>
        <mxCell id="o9-z1RI_EK6PcWkdSyOs-170" value="Biodiversity" style="rounded=1;fillColor=#23445D;gradientColor=none;strokeColor=none;fontColor=#FFFFFF;fontStyle=1;fontFamily=Tahoma;fontSize=14" vertex="1" parent="1">
          <mxGeometry x="432" y="475.5" width="130" height="60" as="geometry" />
        </mxCell>
        <mxCell id="o9-z1RI_EK6PcWkdSyOs-171" value="Terminology" style="rounded=1;fillColor=#23445D;gradientColor=none;strokeColor=none;fontColor=#FFFFFF;fontStyle=1;fontFamily=Tahoma;fontSize=14" vertex="1" parent="1">
          <mxGeometry x="600" y="475.5" width="130" height="60" as="geometry" />
        </mxCell>
        <mxCell id="o9-z1RI_EK6PcWkdSyOs-172" value="(Semi-)natural features" style="rounded=1;fillColor=#23445D;gradientColor=none;strokeColor=none;fontColor=#FFFFFF;fontStyle=1;fontFamily=Tahoma;fontSize=14" vertex="1" parent="1">
          <mxGeometry x="767" y="475.5" width="130" height="60" as="geometry" />
        </mxCell>
        <mxCell id="o9-z1RI_EK6PcWkdSyOs-173" value="Greenspace" style="rounded=1;fillColor=#23445D;gradientColor=none;strokeColor=none;fontColor=#FFFFFF;fontStyle=1;fontFamily=Tahoma;fontSize=14" vertex="1" parent="1">
          <mxGeometry x="600" y="560" width="130" height="60" as="geometry" />
        </mxCell>
        <mxCell id="o9-z1RI_EK6PcWkdSyOs-174" value="Green/blue infrastructure of network" style="rounded=1;fillColor=#23445D;gradientColor=none;strokeColor=none;fontColor=#FFFFFF;fontStyle=1;fontFamily=Tahoma;fontSize=14;whiteSpace=wrap;" vertex="1" parent="1">
          <mxGeometry x="600" y="635.5" width="130" height="60" as="geometry" />
        </mxCell>
        <mxCell id="o9-z1RI_EK6PcWkdSyOs-175" value="Terminology" style="rounded=1;fillColor=#23445D;gradientColor=none;strokeColor=none;fontColor=#FFFFFF;fontStyle=1;fontFamily=Tahoma;fontSize=14" vertex="1" parent="1">
          <mxGeometry x="592" y="725.5" width="130" height="60" as="geometry" />
        </mxCell>
      </root>
    </mxGraphModel>
  </diagram>
</mxfile>
